HIERARCHY
ROOT SpineBase
{
  OFFSET 0.000000 0.000000 0.000000
  CHANNELS 6 Xposition Yposition Zposition Zrotation Xrotation Yrotation
  JOINT SpineMid
  {
    OFFSET 0.000000 24.846717 0.000000
    CHANNELS 3 Zrotation Xrotation Yrotation
    JOINT SpineShoulder
    {
      OFFSET -0.008889 18.655718 -0.994678
      CHANNELS 3 Zrotation Xrotation Yrotation
      JOINT Neck
      {
        OFFSET 0.020931 6.210691 -0.672765
        CHANNELS 3 Zrotation Xrotation Yrotation
        JOINT Head
        {
          OFFSET 1.963995 9.153221 2.538899
          CHANNELS 3 Zrotation Xrotation Yrotation
          End Site
          {
            OFFSET 0 0 0
          }
        }
      }
      JOINT ShoulderLeft
      {
        OFFSET -12.946480 -1.619861 -7.381092
        CHANNELS 3 Zrotation Xrotation Yrotation
        JOINT ElbowLeft
        {
          OFFSET -4.019811 -17.579743 -5.044116
          CHANNELS 3 Zrotation Xrotation Yrotation
          JOINT WristLeft
          {
            OFFSET 10.829066 -16.591338 -14.207751
            CHANNELS 3 Zrotation Xrotation Yrotation
            JOINT HandLeft
            {
              OFFSET 5.529468 0.374209 -4.365002
              CHANNELS 3 Zrotation Xrotation Yrotation
              JOINT HandTipLeft
              {
                OFFSET 5.798213 -2.553765 -6.495933
                CHANNELS 3 Zrotation Xrotation Yrotation
                End Site
                {
                  OFFSET 0 0 0
                }
              }
              JOINT ThumbLeft
              {
                OFFSET -3.231904 -1.793849 -3.599858
                CHANNELS 3 Zrotation Xrotation Yrotation
                End Site
                {
                  OFFSET 0 0 0
                }
              }
            }
          }
        }
      }
      JOINT ShoulderRight
      {
        OFFSET 15.248281 -5.186805 2.505074
        CHANNELS 3 Zrotation Xrotation Yrotation
        JOINT ElbowRight
        {
          OFFSET 3.514103 -22.956819 2.712693
          CHANNELS 3 Zrotation Xrotation Yrotation
          JOINT WristRight
          {
            OFFSET 1.578036 -5.735853 -17.753543
            CHANNELS 3 Zrotation Xrotation Yrotation
            JOINT HandRight
            {
              OFFSET -1.149305 -2.919162 -13.232332
              CHANNELS 3 Zrotation Xrotation Yrotation
              JOINT HandTipRight
              {
                OFFSET 0.481452 -0.122871 -2.527352
                CHANNELS 3 Zrotation Xrotation Yrotation
                End Site
                {
                  OFFSET 0 0 0
                }
              }
              JOINT ThumbRight
              {
                OFFSET 2.132474 4.060527 -0.052268
                CHANNELS 3 Zrotation Xrotation Yrotation
                End Site
                {
                  OFFSET 0 0 0
                }
              }
            }
          }
        }
      }
    }
  }
  JOINT HipLeft
  {
    OFFSET -5.112428 1.517666 -4.962891
    CHANNELS 3 Zrotation Xrotation Yrotation
    JOINT KneeLeft
    {
      OFFSET 6.920013 1.364656 -31.123596
      CHANNELS 3 Zrotation Xrotation Yrotation
      JOINT AnkleLeft
      {
        OFFSET -3.451029 -37.162569 -5.473476
        CHANNELS 3 Zrotation Xrotation Yrotation
        JOINT FootLeft
        {
          OFFSET 2.719383 -3.088942 -10.951378
          CHANNELS 3 Zrotation Xrotation Yrotation
          End Site
          {
            OFFSET 0 0 0
          }
        }
      }
    }
  }
  JOINT HipRight
  {
    OFFSET 4.730120 0.768375 -1.438651
    CHANNELS 3 Zrotation Xrotation Yrotation
    JOINT KneeRight
    {
      OFFSET 19.563302 -9.311359 -27.118769
      CHANNELS 3 Zrotation Xrotation Yrotation
      JOINT AnkleRight
      {
        OFFSET -1.861726 -28.630597 -1.961931
        CHANNELS 3 Zrotation Xrotation Yrotation
        JOINT FootRight
        {
          OFFSET 3.434788 -2.028891 -12.517454
          CHANNELS 3 Zrotation Xrotation Yrotation
          End Site
          {
            OFFSET 0 0 0
          }
        }
      }
    }
  }
}
MOTION
Frames: 15
Frame Time: 0.033333
23.457465 43.765732 369.531150 -1.720113 -5.725382 -21.251404 -0.631567 0.724222 21.088242 0.370927 0.322512 -0.065117 -2.928297 9.256471 0.876334 0.000000 0.000000 0.000000 33.430884 20.789758 -20.341015 -74.657809 -54.887814 -14.572805 6.628880 -36.482360 56.517370 13.852085 24.302426 -47.888373 0.000000 0.000000 0.000000 0.000000 0.000000 0.000000 8.663691 27.284462 2.525413 -6.089391 18.372437 2.049224 -0.918957 -5.088356 -10.390044 -9.227093 -9.931631 58.331402 0.000000 0.000000 0.000000 0.000000 0.000000 0.000000 0.576599 -0.363238 22.010230 1.455310 4.803301 -0.828871 -6.608091 -23.764452 -4.803767 0.000000 0.000000 0.000000 -0.910641 3.873614 20.838352 -0.093381 4.459695 0.349260 -4.856745 -27.408768 15.095913 0.000000 0.000000 0.000000
23.440306 43.721292 369.632056 -2.013843 -5.856457 -21.220766 -0.771321 0.755155 21.029902 0.226422 0.288447 -0.096079 -2.117040 8.143420 1.031162 0.000000 0.000000 0.000000 34.531435 21.628908 -21.018060 -73.706318 -55.044065 -14.593235 9.990513 -34.012139 60.705404 16.721790 23.772716 -51.380180 0.000000 0.000000 0.000000 0.000000 0.000000 0.000000 10.303699 26.661030 2.301843 -7.110847 19.649938 2.168612 -0.953037 -5.062212 -10.388174 -9.077069 -10.387773 57.988549 0.000000 0.000000 0.000000 0.000000 0.000000 0.000000 0.783912 -0.054738 21.902002 1.425758 4.850713 -0.790383 -5.804859 -21.182002 -3.157942 0.000000 0.000000 0.000000 -0.692997 4.177262 20.897589 -0.155824 4.380977 0.240091 -5.088509 -31.284310 18.211114 0.000000 0.000000 0.000000
23.400813 43.628170 369.742836 -2.279229 -5.965083 -20.989561 -0.819521 0.810722 20.773563 0.201349 0.298345 -0.112701 -1.738475 7.079930 1.226447 0.000000 0.000000 0.000000 35.362967 21.875283 -21.420142 -75.268723 -55.548200 -15.601147 10.672622 -31.609872 59.452992 3.400295 24.633637 -44.434575 0.000000 0.000000 0.000000 0.000000 0.000000 0.000000 11.025042 26.632210 2.246048 -7.488666 20.023525 2.187656 -0.973507 -5.046835 -10.388987 -9.006084 -10.654799 57.826745 0.000000 0.000000 0.000000 0.000000 0.000000 0.000000 0.958872 0.302732 21.567607 1.381971 4.839770 -0.725424 -4.648637 -16.703601 -0.690908 0.000000 0.000000 0.000000 -0.435604 4.564844 20.710649 -0.276179 4.166800 0.172785 -4.646964 -27.767227 17.562047 0.000000 0.000000 0.000000
23.380681 43.569172 369.824493 -2.384579 -6.097696 -20.789031 -0.672635 0.905362 20.560920 0.347343 0.256531 -0.100940 -2.479468 6.773996 1.496068 0.000000 0.000000 0.000000 35.370439 21.984889 -21.626365 -72.891650 -54.678743 -13.521417 10.031269 -30.387673 58.316884 -8.001294 23.227250 -36.755517 0.000000 0.000000 0.000000 0.000000 0.000000 0.000000 10.576946 27.145555 2.279974 -7.233056 19.511693 2.099591 -0.965290 -5.052307 -10.389814 -9.044037 -10.547771 57.917131 0.000000 0.000000 0.000000 0.000000 0.000000 0.000000 0.987556 0.584315 21.302418 1.360574 4.828342 -0.682974 -3.619427 -11.495269 1.931115 0.000000 0.000000 0.000000 -0.360141 4.800561 20.543458 -0.353966 4.078268 0.134583 -3.407093 -18.955950 14.794372 0.000000 0.000000 0.000000
23.356895 43.524096 369.887744 -2.454103 -6.254079 -20.692739 -0.583587 0.948550 20.454482 0.457945 0.233989 -0.092984 -2.861411 7.012414 1.575782 0.000000 0.000000 0.000000 35.088277 21.869977 -21.510158 -74.006767 -54.680780 -13.631261 8.150170 -33.901240 57.210308 -26.427633 23.746835 -30.917005 0.000000 0.000000 0.000000 0.000000 0.000000 0.000000 9.464412 28.101183 2.486781 -6.298832 18.139667 1.931867 -0.928406 -5.078982 -10.391190 -9.196067 -10.065910 58.268931 0.000000 0.000000 0.000000 0.000000 0.000000 0.000000 0.981417 0.836953 21.149918 1.373178 4.875882 -0.654337 -2.650311 -4.355006 5.255104 0.000000 0.000000 0.000000 -0.341029 5.012009 20.476668 -0.363214 4.027189 0.098241 -2.489678 -13.769129 12.486240 0.000000 0.000000 0.000000
23.339300 43.445842 369.927908 -2.641967 -6.310228 -20.497842 -0.937332 0.867449 20.243929 0.109086 0.258655 -0.142619 -0.114715 6.824570 0.975337 0.000000 0.000000 0.000000 35.714000 21.586186 -21.157780 -70.991596 -53.214567 -10.685231 4.817407 -34.507656 53.214441 -42.161265 16.970068 -22.914881 0.000000 0.000000 0.000000 0.000000 0.000000 0.000000 9.479436 29.882454 2.897981 -5.487208 16.348640 1.640682 -0.935723 -5.075660 -10.401174 -9.254670 -10.130485 58.413455 0.000000 0.000000 0.000000 0.000000 0.000000 0.000000 1.120206 1.073524 20.908238 1.383096 4.876374 -0.647118 -2.364132 -1.025064 6.780549 0.000000 0.000000 0.000000 -0.145369 5.202675 20.252894 -0.427241 3.955160 0.106727 -2.445141 -13.591166 12.528711 0.000000 0.000000 0.000000
23.339897 43.375177 369.934047 -2.563416 -6.380805 -20.351571 -0.457474 0.917131 20.096829 0.923750 0.174023 -0.066563 -2.969319 7.941259 1.315148 0.000000 0.000000 0.000000 34.449670 21.693704 -21.369824 -70.048858 -52.890394 -10.107108 5.185287 -31.379899 51.470452 -46.942887 10.298342 -17.775795 0.000000 0.000000 0.000000 0.000000 0.000000 0.000000 7.160058 30.868924 3.051148 -4.563337 15.102361 1.546994 -0.904644 -5.099149 -10.403643 -9.396156 -9.718293 58.734097 0.000000 0.000000 0.000000 0.000000 0.000000 0.000000 1.010425 1.208843 20.761143 1.250108 5.583734 -0.682715 -2.380625 -3.196404 6.292130 0.000000 0.000000 0.000000 -0.215725 5.290105 20.108509 -0.498232 3.946747 0.114331 -2.022654 -11.657843 11.901999 0.000000 0.000000 0.000000
23.370250 43.299945 369.901093 -2.432809 -6.419955 -20.286984 -0.240725 0.950558 20.041296 0.558358 0.245289 -0.069271 -3.456252 8.565000 1.406083 0.000000 0.000000 0.000000 34.105812 21.569999 -21.093193 -69.201705 -52.790265 -10.093483 8.260715 -28.822690 54.588484 -43.451726 10.473941 -15.557667 0.000000 0.000000 0.000000 0.000000 0.000000 0.000000 6.064022 30.247499 3.206984 -3.565440 14.798179 1.675162 -0.842042 -5.145550 -10.399845 -9.612248 -8.911191 59.205302 0.000000 0.000000 0.000000 0.000000 0.000000 0.000000 0.869612 1.273991 20.751283 1.233644 5.511053 -0.721222 -2.487239 -4.828215 5.362266 0.000000 0.000000 0.000000 -0.325294 5.353067 20.052363 -0.610252 3.925913 0.123349 -1.584760 -9.949998 11.185055 0.000000 0.000000 0.000000
23.433484 43.238080 369.816654 -2.320174 -6.325949 -20.333838 -0.285163 0.912501 20.101467 0.162986 0.471010 -0.086097 -2.365110 8.442471 1.087434 0.000000 0.000000 0.000000 34.044936 21.448749 -20.756122 -66.944764 -52.127911 -9.031243 8.704894 -27.763841 55.535963 -37.652189 9.470851 -12.667325 0.000000 0.000000 0.000000 0.000000 0.000000 0.000000 5.236873 28.837280 3.338344 -2.540221 14.986447 1.910241 -0.780365 -5.192372 -10.394997 -9.826823 -8.110074 59.659120 0.000000 0.000000 0.000000 0.000000 0.000000 0.000000 0.804124 1.147138 20.898717 1.234620 5.512760 -0.808068 -2.349251 -4.806583 4.795204 0.000000 0.000000 0.000000 -0.386384 5.270202 20.094483 -0.728641 3.999583 0.142259 -1.023977 -8.279807 9.751535 0.000000 0.000000 0.000000
23.492173 43.195103 369.713582 -2.131652 -6.261161 -20.251919 -0.194664 0.973363 20.039394 -0.019800 0.696063 -0.078961 -2.743252 8.623076 1.078677 0.000000 0.000000 0.000000 33.586559 21.564300 -20.585482 -65.180490 -51.756992 -8.433870 9.047955 -27.150889 56.592336 -35.955402 11.978085 -15.937189 0.000000 0.000000 0.000000 0.000000 0.000000 0.000000 4.012686 27.185990 3.363866 -1.536298 15.538490 2.213889 -0.729134 -5.232289 -10.390473 -10.011403 -7.437080 60.039671 0.000000 0.000000 0.000000 0.000000 0.000000 0.000000 0.659789 1.010538 20.907677 1.237571 5.523475 -0.877395 -2.235603 -4.046975 4.992081 0.000000 0.000000 0.000000 -0.521885 5.155204 19.997464 -0.814652 4.026768 0.181827 -1.724349 -11.730864 11.129242 0.000000 0.000000 0.000000
23.569125 43.184160 369.577577 -1.824022 -6.164405 -20.072539 -0.040804 1.061955 19.891385 -0.074730 0.859637 -0.057679 -4.198987 9.117616 1.292241 0.000000 0.000000 0.000000 32.810928 21.696103 -20.445474 -63.645936 -51.656843 -8.319872 9.360793 -27.517513 58.733672 -30.210428 15.923412 -20.903783 0.000000 0.000000 0.000000 0.000000 0.000000 0.000000 2.838771 25.297600 3.229689 -0.851951 16.657712 2.569676 -0.698289 -5.257244 -10.386243 -10.118740 -7.025134 60.253360 0.000000 0.000000 0.000000 0.000000 0.000000 0.000000 0.426308 0.730517 20.833754 1.257108 5.605354 -0.950127 -2.823252 -9.233484 2.365199 0.000000 0.000000 0.000000 -0.771098 4.897644 19.815379 -0.836373 4.056916 0.223555 -1.894349 -12.629556 11.842702 0.000000 0.000000 0.000000
23.665736 43.210299 369.439957 -1.405706 -6.081028 -20.048220 0.163267 1.158597 19.907680 0.091982 0.965544 -0.018131 -6.745795 9.799504 1.743616 0.000000 0.000000 0.000000 31.714698 21.676932 -20.309874 -60.192309 -50.460556 -6.629547 9.779397 -28.699064 62.817385 -16.115423 20.966820 -30.029640 0.000000 0.000000 0.000000 0.000000 0.000000 0.000000 1.391644 24.016195 3.102490 -0.236800 17.204969 2.772011 -0.662812 -5.284732 -10.381988 -10.241997 -6.560366 60.498481 0.000000 0.000000 0.000000 0.000000 0.000000 0.000000 0.089507 0.401173 20.965582 1.283187 5.713286 -1.063887 -3.286815 -12.710742 0.092715 0.000000 0.000000 0.000000 -1.166926 4.568101 19.840108 -0.789582 4.030081 0.227680 -1.859446 -12.443285 11.803423 0.000000 0.000000 0.000000
23.752874 43.291620 369.328965 -0.920341 -6.020572 -19.988036 0.391245 1.234892 19.893026 0.373983 0.990595 0.030830 -9.882030 10.806097 2.336182 0.000000 0.000000 0.000000 30.410922 21.500038 -20.121776 -64.141585 -52.370020 -9.651561 10.248769 -29.214294 61.759739 -31.137131 20.674412 -26.637432 0.000000 0.000000 0.000000 0.000000 0.000000 0.000000 0.016763 22.958200 2.920853 0.139467 17.831751 2.937371 -0.638547 -5.303531 -10.378554 -10.324714 -6.241882 60.660554 0.000000 0.000000 0.000000 0.000000 0.000000 0.000000 -0.313825 0.020178 21.031807 1.320726 5.870501 -1.143676 -3.895519 -16.107861 -2.156074 0.000000 0.000000 0.000000 -1.663108 4.166650 19.879277 -0.665903 4.033677 0.188007 -1.639181 -11.238341 11.397001 0.000000 0.000000 0.000000
23.842809 43.399599 369.233931 -0.385745 -5.976015 -19.929461 0.600397 1.303420 19.884230 0.708556 0.977938 0.084430 -13.201205 11.789169 3.011538 0.000000 0.000000 0.000000 29.021418 21.358034 -19.957489 -64.525677 -52.562556 -10.087666 9.903824 -31.666365 62.802878 -29.501626 20.920095 -25.255683 0.000000 0.000000 0.000000 0.000000 0.000000 0.000000 -1.089611 22.395951 2.754785 0.191308 18.177241 3.002366 -0.623754 -5.314677 -10.375273 -10.363470 -6.051497 60.732429 0.000000 0.000000 0.000000 0.000000 0.000000 0.000000 -0.765265 -0.385578 21.104687 1.211929 5.224065 -1.114184 -4.261163 -17.411043 -3.439764 0.000000 0.000000 0.000000 -2.237476 3.683680 19.936926 -0.488219 4.097351 0.135768 -1.223670 -9.114200 10.748052 0.000000 0.000000 0.000000
23.912944 43.521655 369.177308 -0.001340 -5.950364 -19.849598 0.578048 1.269512 19.842016 0.936090 0.913171 0.114670 -14.954961 12.769089 3.355952 0.000000 0.000000 0.000000 28.157871 21.042363 -19.693753 -64.209017 -52.188646 -9.615636 11.045160 -31.944065 64.706742 -41.922325 24.123344 -26.823813 0.000000 0.000000 0.000000 0.000000 0.000000 0.000000 -1.093019 22.218605 2.604823 -0.296449 18.342367 2.909548 -0.614156 -5.320622 -10.372462 -10.340724 -5.961099 60.669901 0.000000 0.000000 0.000000 0.000000 0.000000 0.000000 -1.089170 -0.699005 21.111774 1.225196 5.278068 -1.151956 -4.186815 -17.017214 -3.151330 0.000000 0.000000 0.000000 -2.652011 3.365713 19.967490 -0.308230 4.084191 0.064187 -1.580124 -10.442277 11.088155 0.000000 0.000000 0.000000
